<svg xmlns="http://www.w3.org/2000/svg" viewBox="0 0 64 64">
  <defs>
    <linearGradient id="grad1" x1="0%" y1="0%" x2="100%" y2="100%">
      <stop offset="0%" style="stop-color:#6366f1;stop-opacity:1" />
      <stop offset="100%" style="stop-color:#8b5cf6;stop-opacity:1" />
    </linearGradient>
    <linearGradient id="grad2" x1="0%" y1="0%" x2="100%" y2="100%">
      <stop offset="0%" style="stop-color:#22d3ee;stop-opacity:1" />
      <stop offset="100%" style="stop-color:#06b6d4;stop-opacity:1" />
    </linearGradient>
  </defs>
  <!-- Background Circle -->
  <circle cx="32" cy="32" r="30" fill="url(#grad1)"/>
  <!-- Graduation Cap Base -->
  <polygon points="32,16 8,28 32,40 56,28" fill="#ffffff"/>
  <!-- Graduation Cap Top -->
  <rect x="28" y="10" width="8" height="6" fill="#ffffff" rx="1"/>
  <!-- Book Pages -->
  <path d="M16 34 L16 48 Q32 42 32 48 L32 34 Q24 36 16 34 Z" fill="rgba(255,255,255,0.9)"/>
  <path d="M48 34 L48 48 Q32 42 32 48 L32 34 Q40 36 48 34 Z" fill="rgba(255,255,255,0.85)"/>
  <!-- Tassel -->
  <line x1="8" y1="28" x2="8" y2="42" stroke="url(#grad2)" stroke-width="2.5" stroke-linecap="round"/>
  <circle cx="8" cy="44" r="3" fill="url(#grad2)"/>
  <!-- Accent Stars -->
  <circle cx="52" cy="14" r="2" fill="#fbbf24"/>
  <circle cx="48" cy="52" r="1.5" fill="#fbbf24"/>
  <circle cx="16" cy="12" r="1.5" fill="#fbbf24"/>
</svg>
